<svg xmlns="http://www.w3.org/2000/svg" viewBox="0 0 293.593 293.929"><circle cx="146.8" cy="147.13" r="142.8" fill="#F8EC33"/><path d="M146.8 293.93C65.85 293.93 0 228.08 0 147.13 0 66.2 65.85.33 146.8.33c80.94 0 146.8 65.86 146.8 146.8 0 80.95-65.86 146.8-146.8 146.8zm0-285.6C70.26 8.33 8 70.6 8 147.13c0 76.55 62.26 138.8 138.8 138.8 76.53 0 138.8-62.26 138.8-138.8S223.32 8.33 146.8 8.33z" fill="#414042"/><path d="M146.8 266.93C80.74 266.93 27 213.2 27 147.13s53.74-119.8 119.8-119.8c66.05 0 119.8 53.75 119.8 119.8s-53.75 119.8-119.8 119.8z" fill="#D5D5CC"/><path d="M146.8 270.93C78.53 270.93 23 215.4 23 147.13s55.53-123.8 123.8-123.8 123.8 55.54 123.8 123.8-55.54 123.8-123.8 123.8zm0-239.6C82.95 31.33 31 83.3 31 147.13c0 63.86 51.95 115.8 115.8 115.8S262.6 211 262.6 147.13c0-63.83-51.95-115.8-115.8-115.8z" fill="#414042"/><g fill="#414042"><path d="M171.86 154.23c0-14.62-5.95-27.65-10.94-36-5.2-8.73-10.35-14.2-10.92-14.78l-2.48-2.57c-.2-.2-.45-.3-.72-.3-.27 0-.53.1-.72.3l-2.48 2.57c-.22.24-5.58 5.84-10.92 14.78-5 8.35-10.94 21.38-10.94 36 0 14.62 5.95 27.65 10.94 36 5.35 8.97 10.7 14.54 10.92 14.78l2.48 2.6c.2.2.45.3.72.3.27 0 .53-.1.72-.3L150 205c.22-.23 5.57-5.8 10.93-14.77 4.98-8.36 10.93-21.38 10.93-36zm-8.9 0c0 17.15-9.63 32.3-15.38 39.83-.2.24-.48.4-.8.4-.3 0-.6-.16-.78-.4-5.74-7.5-15.38-22.64-15.38-39.83 0-16.58 9.13-31.4 14.58-38.74.38-.6.96-.9 1.6-.9.64 0 1.23.3 1.6.8 5.45 7.3 14.57 22.1 14.57 38.7z"/><path d="M223 128.95l-.48-3.53c-.03-.27-.18-.5-.4-.67-.22-.16-.5-.22-.76-.18l-3.5.6c-.92.17-22.42 4-39.08 18.8-1.83 1.63-2 4.44-.38 6.27.8.9 1.88 1.42 3.06 1.5 1.18.05 2.33-.33 3.22-1.12 9.87-8.76 22.2-13.27 28.65-15.17.3-.1.63-.04.88.15.3.18.4.46.5.77.2 9.45-.9 27.36-11 41.25-14.1 19.38-41.7 24.55-41.9 24.6-2.4.42-4 2.73-3.6 5.14.4 2.14 2.2 3.7 4.4 3.7.3 0 .5-.04.8-.08.8-.15 8.2-1.52 17.6-5.5 9-3.8 21.5-10.82 30.1-22.62 8.6-11.8 11.5-25.84 12.4-35.53.9-10.16 0-17.57-.1-18.38zm-91 73.27c-.28-.05-27.77-5.16-41.96-24.6-10.1-13.85-11.27-31.8-11.05-41.25 0-.42.2-.66.4-.77.2-.2.5-.24.8-.15 6.4 1.88 18.6 6.33 28.4 15 1.8 1.66 4.6 1.64 6.2-.02.8-.87 1.3-2.04 1.3-3.27-.1-1.22-.6-2.38-1.5-3.2-16.6-14.74-38.1-18.62-39.1-18.76l-3.5-.7c-.3-.1-.6 0-.8.2-.2.1-.4.4-.4.6l-.5 3.5c-.1.82-1.1 8.3-.1 18.37.9 9.7 3.7 23.7 12.4 35.52 8.6 11.8 21.1 18.8 30 22.6 9.7 4.1 17.2 5.4 17.5 5.4.2 0 .5.1.72.1 2.2 0 4-1.6 4.4-3.7.2-1.2-.08-2.4-.76-3.3-.7-1-1.7-1.6-2.87-1.8z"/></g><circle cx="146.8" cy="67.5" r="12.13" fill="#F8EC33"/><path d="M146.8 82.13c-8.07 0-14.63-6.56-14.63-14.63s6.56-14.63 14.63-14.63c8.06 0 14.62 6.57 14.62 14.63s-6.56 14.63-14.62 14.63zm0-24.26c-5.3 0-9.63 4.32-9.63 9.63s4.32 9.63 9.63 9.63 9.62-4.32 9.62-9.63-4.3-9.63-9.62-9.63z" fill="#414042"/><circle cx="146.8" cy="239.08" r="12.13" fill="#F8EC33"/><path d="M146.8 253.7c-8.07 0-14.63-6.55-14.63-14.62s6.56-14.63 14.63-14.63c8.06 0 14.62 6.56 14.62 14.63s-6.56 14.63-14.62 14.63zm0-24.25c-5.3 0-9.63 4.32-9.63 9.63s4.32 9.63 9.63 9.63 9.62-4.3 9.62-9.6-4.3-9.6-9.62-9.6z" fill="#414042"/><circle cx="83.19" cy="91.76" r="12.13" fill="#F8EC33"/><path d="M83.2 106.4c-8.08 0-14.64-6.57-14.64-14.64s6.56-14.63 14.63-14.63c8 0 14.6 6.56 14.6 14.63s-6.6 14.64-14.6 14.64zm0-24.27c-5.32 0-9.64 4.32-9.64 9.63s4.32 9.63 9.63 9.63 9.6-4.4 9.6-9.7-4.3-9.7-9.7-9.7z" fill="#414042"/><circle cx="210.41" cy="91.76" r="12.13" fill="#F8EC33"/><path d="M210.4 106.4c-8.06 0-14.63-6.57-14.63-14.64s6.57-14.63 14.63-14.63c8.07 0 14.63 6.56 14.63 14.63s-6.56 14.63-14.63 14.63zm0-24.27c-5.3 0-9.63 4.32-9.63 9.63s4.32 9.63 9.63 9.63 9.63-4.4 9.63-9.7-4.33-9.7-9.63-9.7z" fill="#414042"/><circle cx="-675.2" cy="67.5" r="142.8" fill="#F8EC33" stroke="#414042" stroke-width="8"/><path d="M-675.2 187.3c-66.06 0-119.8-53.74-119.8-119.8s53.74-119.8 119.8-119.8c66.05 0 119.8 53.74 119.8 119.8s-53.75 119.8-119.8 119.8z" fill="#D5D5CC" stroke="#414042" stroke-width="8"/><g fill="#414042"><path d="M-650.14 74.6c0-14.63-5.95-27.65-10.94-36-5.2-8.73-10.35-14.2-10.92-14.78l-2.48-2.57c-.2-.2-.45-.3-.72-.3-.27 0-.53.1-.72.3l-2.48 2.57c-.22.24-5.58 5.84-10.92 14.78-5 8.35-10.94 21.38-10.94 36 0 14.62 5.95 27.65 10.94 36 5.35 8.97 10.7 14.54 10.92 14.78l2.48 2.56c.2.2.45.3.72.3.27 0 .53-.1.72-.3l2.48-2.57c.22-.23 5.56-5.8 10.92-14.77 5-8.36 10.94-21.38 10.94-36zm-8.9 0c0 17.14-9.63 32.3-15.38 39.83-.2.24-.48.38-.8.38v.1c-.3 0-.6-.1-.78-.4-5.74-7.5-15.38-22.6-15.38-39.8 0-16.5 9.13-31.4 14.58-38.7.38-.5.96-.8 1.6-.8.64 0 1.23.3 1.6.8 5.45 7.4 14.57 22.2 14.57 38.8z"/><path d="M-599 49.32l-.48-3.53c-.03-.3-.18-.6-.4-.7-.22-.2-.5-.2-.76-.2l-3.5.6c-.92.1-22.42 4-39.08 18.8-1.83 1.6-2 4.4-.38 6.2.8.9 1.88 1.4 3.06 1.5 1.18 0 2.33-.4 3.22-1.1 9.87-8.8 22.2-13.3 28.65-15.2.3-.1.63-.1.88.1.3.2.4.4.5.7.2 9.4-.9 27.3-11 41.2-14.1 19.3-41.6 24.5-41.9 24.6-2.4.4-4 2.7-3.6 5.1.4 2.1 2.2 3.7 4.4 3.7.3 0 .5 0 .8-.1.8-.2 8.2-1.5 17.6-5.5 8.9-3.8 21.4-10.8 30-22.6 8.7-11.8 11.5-25.9 12.4-35.5 1-10.2 0-17.6-.1-18.4zm-91 73.28c-.28-.06-27.77-5.17-41.96-24.6-10.1-13.86-11.26-31.8-11.05-41.26 0-.42.2-.67.4-.77.2-.2.5-.25.8-.15 6.4 1.88 18.6 6.33 28.4 15 1.8 1.66 4.6 1.64 6.2-.02.9-.87 1.3-2.04 1.3-3.27-.1-1.22-.6-2.38-1.5-3.2-16.6-14.75-38.2-18.63-39.1-18.78l-3.5-.6c-.3-.05-.6 0-.8.17-.3.16-.4.4-.4.67l-.5 3.5c-.1.8-1.1 8.3-.1 18.3.9 9.7 3.7 23.7 12.4 35.5 8.6 11.8 21.1 18.8 30 22.6 9.7 4.1 17.2 5.4 17.5 5.5h.8c2.1 0 4-1.6 4.4-3.7.2-1.2-.1-2.4-.8-3.3-.7-1-1.7-1.6-2.86-1.8z"/></g><circle cx="-675.2" cy="-12.13" r="12.13" fill="#F8EC33" stroke="#414042" stroke-width="5"/><circle cx="-675.2" cy="159.45" r="12.13" fill="#F8EC33" stroke="#414042" stroke-width="5"/><circle cx="-738.81" cy="12.13" r="12.13" fill="#F8EC33" stroke="#414042" stroke-width="5"/><circle cx="-611.6" cy="12.13" r="12.13" fill="#F8EC33" stroke="#414042" stroke-width="5"/></svg>