<svg xmlns="http://www.w3.org/2000/svg" xmlns:xlink="http://www.w3.org/1999/xlink" viewBox="0 0 30 30"><defs><path id="a" d="M0 0h30v30H0z"/></defs><clipPath id="b"><use xlink:href="#a" overflow="visible"/></clipPath><g clip-path="url(#b)"><defs><path id="c" d="M0 .304h29.977V30H0"/></defs><clipPath id="d"><use xlink:href="#c" overflow="visible"/></clipPath><g clip-path="url(#d)"><defs><path id="e" d="M0 0h30v30H0z"/></defs><clipPath id="f"><use xlink:href="#e" overflow="visible"/></clipPath><g clip-path="url(#f)"><defs><path id="g" d="M0 0h30v30H0z"/></defs><clipPath id="h"><use xlink:href="#g" overflow="visible"/></clipPath><g clip-path="url(#h)"><defs><path id="i" d="M28.25 11.803c-.702-.442-1.405-.884-2.108-1.263.256-.758.448-1.517.576-2.338.192-1.137-.128-2.338-.895-3.286-.96-1.074-2.43-1.643-3.835-1.39-.767.127-1.598.316-2.365.57-.383-.76-.83-1.454-1.278-2.086C17.578.936 16.363.304 15.02.304c-1.34 0-2.556.632-3.387 1.706-.448.695-.895 1.39-1.278 2.085-.768-.252-1.535-.442-2.365-.57-1.406-.252-2.877.317-3.835 1.39-.767.886-1.087 2.087-.895 3.35.128.758.32 1.58.575 2.338-.767.38-1.47.82-2.11 1.264C.64 12.625 0 13.825 0 15.152c0 1.327.64 2.528 1.79 3.412.703.442 1.406.884 2.11 1.263-.257.758-.45 1.517-.576 2.338-.192 1.137.128 2.338.895 3.286.958 1.075 2.428 1.644 3.834 1.39.767-.126 1.598-.315 2.365-.568.383.695.83 1.39 1.277 2.022.767 1.074 1.98 1.706 3.324 1.706 1.343 0 2.558-.632 3.325-1.832.447-.695.895-1.39 1.278-2.085.767.253 1.598.442 2.365.57.256.062.448.062.703.062 1.215 0 2.366-.506 3.133-1.453.767-.884 1.087-2.085.895-3.286-.128-.758-.32-1.58-.576-2.338.767-.38 1.47-.82 2.11-1.264 1.086-.758 1.725-1.96 1.725-3.286 0-1.263-.64-2.526-1.726-3.285m-1.405 4.613c-.83.632-1.726 1.137-2.685 1.58-.575.253-.83.948-.64 1.516.32.948.576 1.96.768 2.97.064.632-.192 1.074-.384 1.264-.32.38-.767.57-1.214.57h-.256c-1.022-.128-2.045-.443-3.004-.76-.575-.19-1.278.064-1.534.633-.448.947-1.023 1.83-1.598 2.653-.256.442-.767.695-1.278.695-.51 0-.96-.253-1.278-.695-.64-.82-1.15-1.706-1.598-2.654-.255-.443-.703-.696-1.15-.696-.128 0-.256 0-.447.063-.96.316-1.98.57-3.004.758-.51.063-1.087-.127-1.47-.57-.128-.19-.448-.63-.32-1.263.127-1.012.447-2.022.766-2.97.19-.57-.065-1.263-.64-1.516-.96-.442-1.854-1.01-2.685-1.58-.447-.253-.703-.758-.703-1.264 0-.505.256-.948.703-1.263.83-.633 1.726-1.138 2.748-1.58.575-.254.83-.95.64-1.517-.32-.948-.577-1.96-.768-2.97-.128-.632.128-1.074.32-1.264.32-.443.895-.696 1.47-.57 1.023.127 2.045.442 3.004.758.574.19 1.277-.063 1.533-.632.448-.948 1.023-1.832 1.598-2.654.257-.38.768-.632 1.28-.632.51 0 .958.19 1.277.632.64.82 1.15 1.706 1.598 2.654.256.57.96.82 1.534.632.958-.316 1.98-.57 3.003-.758.51-.063 1.087.127 1.47.57.192.19.51.63.384 1.263-.128 1.01-.448 2.022-.767 2.97-.192.57.064 1.263.64 1.516.958.44 1.853 1.01 2.684 1.58.447.252.703.757.703 1.262 0 .506-.255.948-.702 1.264"/></defs><clipPath id="j"><use xlink:href="#i" overflow="visible"/></clipPath><g clip-path="url(#j)"><defs><path id="k" d="M0 0h30v30H0z"/></defs><clipPath id="l"><use xlink:href="#k" overflow="visible"/></clipPath><path clip-path="url(#l)" fill="#D4D4CB" d="M-5-4.696h39.977V35H-5z"/></g></g></g></g></g><g clip-path="url(#b)"><defs><path id="m" d="M22.18 13.004c-.193-.126-.45-.316-.704-.442.064-.253.128-.57.192-.82.192-.822-.064-1.58-.575-2.212-.64-.758-1.534-1.137-2.557-.948-.256.063-.575.127-.83.19-.13-.19-.257-.442-.45-.695-.51-.695-1.34-1.137-2.236-1.137-.895 0-1.726.442-2.237 1.137-.128.19-.32.442-.447.695-.256-.063-.575-.126-.83-.19-.96-.126-1.92.19-2.558.948-.51.632-.703 1.453-.575 2.21.064.254.128.57.192.822-.192.126-.447.253-.703.442-.703.506-1.15 1.327-1.15 2.21 0 .886.447 1.707 1.15 2.212.192.127.447.316.703.442-.064.253-.128.57-.192.82-.192.822.064 1.58.575 2.212.64.758 1.598 1.137 2.557.948.256-.063.575-.126.83-.19.13.19.257.443.448.696.51.695 1.342 1.137 2.237 1.137s1.726-.44 2.237-1.2c.128-.19.32-.44.448-.694.256.063.575.127.83.19.13.063.32.063.45.063.83 0 1.597-.317 2.108-.95.51-.63.703-1.452.575-2.21-.064-.253-.128-.57-.192-.82.192-.128.448-.254.703-.443.702-.505 1.15-1.327 1.15-2.21 0-.886-.448-1.708-1.15-2.213m-1.343 2.4c-.447.254-.895.57-1.342.76-.575.252-.83.947-.64 1.515.193.44.32.947.384 1.452 0 .063 0 .127-.065.19 0 0-.064.063-.192.063-.51-.063-.96-.19-1.47-.38-.575-.19-1.278.064-1.534.633-.193.506-.45.948-.768 1.327-.128.19-.256.19-.383 0-.257-.442-.577-.884-.768-1.327-.256-.442-.703-.695-1.15-.695-.128 0-.256 0-.384.063-.51.19-.96.316-1.534.38-.128 0-.192-.064-.192-.064-.064-.063-.064-.126-.064-.19.064-.505.192-.948.383-1.453.193-.57-.063-1.264-.638-1.517-.51-.19-.895-.442-1.342-.758-.128-.063-.128-.126-.128-.19 0-.063.064-.126.128-.19.448-.252.895-.568 1.342-.757.575-.253.83-.948.64-1.517-.193-.44-.32-.947-.384-1.452 0-.063 0-.126.064-.19 0 0 .064-.063.192-.063.51.063.96.19 1.47.38.575.188 1.278-.064 1.534-.633.192-.505.447-.884.767-1.327.128-.19.256-.19.384 0 .255.442.574.884.766 1.327.256.57.96.82 1.534.632.51-.19.96-.316 1.534-.38.128 0 .192.064.192.064.064.063.064.127.064.19-.064.506-.192.948-.383 1.453-.192.57.064 1.265.64 1.518.51.19.958.442 1.34.758.13.063.13.126.13.19-.002.063-.066.126-.13.19"/></defs><clipPath id="n"><use xlink:href="#m" overflow="visible"/></clipPath><g clip-path="url(#n)"><defs><path id="o" d="M0 0h30v30H0z"/></defs><clipPath id="p"><use xlink:href="#o" overflow="visible"/></clipPath><path clip-path="url(#p)" fill="#D4D4CB" d="M1.71 1.938h26.62v26.554H1.71z"/></g></g></svg>