<svg xmlns="http://www.w3.org/2000/svg" xmlns:xlink="http://www.w3.org/1999/xlink" viewBox="0 0 16 16"><defs><path id="a" d="M0 0h16v16H0z"/></defs><clipPath id="b"><use xlink:href="#a" overflow="visible"/></clipPath><g clip-path="url(#b)"><defs><path id="c" d="M0 7.998c0-.863.428-1.66 1.1-2.154.244-.183.49-.307.673-.43-.063-.246-.125-.553-.184-.8-.184-.924.182-1.845.915-2.46.608-.493 1.34-.74 2.135-.556.245.063.55.125.795.187.12-.248.304-.494.428-.677C6.35.428 7.145 0 7.998 0c.857 0 1.65.428 2.14 1.108.182.245.303.49.427.677.242-.062.55-.124.79-.186.737-.125 1.528.06 2.14.555.732.615 1.037 1.536.916 2.46-.06.246-.12.553-.182.8.245.123.49.306.674.43.67.493 1.098 1.29 1.098 2.153s-.428 1.66-1.1 2.154c-.244.183-.49.307-.673.43.062.246.12.553.183.8.183.986-.183 1.846-.916 2.46-.61.494-1.344.74-2.14.556-.24-.062-.548-.124-.79-.186-.124.248-.307.494-.428.677-.487.68-1.282 1.107-2.14 1.107-.853 0-1.647-.428-2.134-1.108-.183-.246-.307-.49-.428-.678-.245.062-.55.124-.795.186-.733.124-1.528-.062-2.136-.556-.61-.49-.916-1.23-.916-2.03 0-.12 0-.307.06-.43.06-.246.123-.553.15-.678 0 0 .032-.12-.09-.183-.12-.06-.365-.244-.548-.368C.428 9.66 0 8.862 0 7.998"/></defs><clipPath id="d"><use xlink:href="#c" overflow="visible"/></clipPath><g clip-path="url(#d)"><defs><path id="e" d="M0 0h16v16H0z"/></defs><clipPath id="f"><use xlink:href="#e" overflow="visible"/></clipPath><path clip-path="url(#f)" fill="#404042" d="M-5-5h26v25.997H-5z"/></g></g></svg>