<?xml version="1.0" standalone="no"?>
<!DOCTYPE svg PUBLIC "-//W3C//DTD SVG 20010904//EN"
 "http://www.w3.org/TR/2001/REC-SVG-20010904/DTD/svg10.dtd">
<svg version="1.0" xmlns="http://www.w3.org/2000/svg"
 width="260.000000pt" height="260.000000pt" viewBox="0 0 260.000000 260.000000"
 preserveAspectRatio="xMidYMid meet">
<metadata>
Created by potrace 1.11, written by Peter Selinger 2001-2013
</metadata>
<g transform="translate(0.000000,260.000000) scale(0.100000,-0.100000)"
fill="#000000" stroke="none">
<path d="M1081 2584 c-538 -90 -978 -534 -1066 -1074 -102 -631 269 -1241 878
-1445 677 -227 1413 145 1642 828 145 433 46 919 -258 1265 -195 223 -477 380
-767 427 -116 18 -315 18 -429 -1z m439 -80 c423 -74 788 -384 934 -792 91
-254 91 -570 0 -824 -121 -339 -403 -621 -742 -742 -254 -91 -570 -91 -824 0
-284 102 -537 322 -675 589 -182 353 -182 777 0 1130 246 475 772 732 1307
639z"/>
<path d="M1145 2390 c-235 -37 -454 -148 -621 -315 -142 -142 -237 -309 -292
-514 -22 -85 -25 -116 -25 -261 0 -145 3 -176 25 -261 55 -206 150 -372 292
-515 143 -142 309 -237 515 -292 85 -22 116 -25 261 -25 145 0 176 3 261 25
206 55 372 150 515 292 142 143 237 309 292 515 22 85 25 116 25 261 0 145 -3
176 -25 261 -55 206 -150 372 -292 515 -202 201 -456 311 -741 319 -71 2 -157
0 -190 -5z m326 -85 c490 -85 849 -511 849 -1005 0 -560 -460 -1020 -1020
-1020 -560 0 -1020 460 -1020 1020 0 491 357 917 843 1005 98 18 247 18 348 0z"/>
<path d="M1243 2125 c-104 -45 -94 -207 15 -245 37 -13 47 -13 84 0 110 39
119 202 13 246 -43 17 -71 17 -112 -1z m90 -47 c32 -17 46 -39 46 -73 0 -56
-54 -94 -106 -74 -68 26 -72 110 -8 147 26 15 41 15 68 0z"/>
<path d="M669 1905 c-59 -32 -80 -102 -51 -169 57 -127 252 -85 252 55 0 42
-34 98 -70 116 -33 17 -99 16 -131 -2z m118 -50 c29 -21 38 -66 19 -103 -37
-72 -146 -46 -146 36 0 68 71 106 127 67z"/>
<path d="M1800 1907 c-36 -18 -70 -74 -70 -116 0 -140 195 -182 252 -55 41 94
-18 184 -119 184 -21 0 -49 -6 -63 -13z m117 -59 c33 -31 32 -90 -3 -117 -45
-35 -95 -26 -120 21 -42 82 56 159 123 96z"/>
<path d="M1235 1648 c-63 -80 -126 -205 -146 -288 -7 -30 -13 -91 -12 -135 1
-138 73 -309 178 -421 l45 -49 45 49 c105 112 177 283 178 421 1 100 -15 168
-63 271 -37 77 -142 224 -160 224 -5 0 -34 -32 -65 -72z m111 -124 c76 -118
107 -256 84 -369 -12 -63 -75 -202 -110 -245 l-20 -25 -20 25 c-11 14 -38 61
-60 105 -51 104 -68 196 -52 290 15 93 103 275 133 275 5 0 25 -25 45 -56z"/>
<path d="M627 1493 c-13 -12 -7 -218 8 -288 48 -224 211 -387 461 -460 64 -18
99 -14 106 13 9 33 -10 49 -84 72 -197 60 -323 167 -378 322 -19 53 -46 235
-37 244 14 14 197 -74 243 -118 14 -12 32 -18 50 -16 24 2 29 8 32 33 2 26 -5
35 -50 69 -115 83 -321 159 -351 129z"/>
<path d="M1845 1476 c-86 -28 -142 -56 -218 -109 -52 -36 -58 -44 -55 -71 2
-26 8 -32 32 -34 18 -2 36 4 50 16 47 44 229 132 244 118 9 -10 -19 -189 -38
-245 -55 -154 -181 -261 -378 -321 -74 -23 -93 -39 -84 -72 7 -27 42 -31 106
-13 319 93 483 315 474 643 l-3 107 -30 2 c-16 2 -61 -8 -100 -21z"/>
<path d="M1243 605 c-97 -42 -95 -200 2 -241 45 -18 69 -18 112 3 97 46 96
198 -2 239 -43 17 -71 17 -112 -1z m96 -50 c72 -37 43 -148 -39 -148 -84 0
-110 111 -35 151 27 15 41 15 74 -3z"/>
</g>
</svg>
