<svg xmlns="http://www.w3.org/2000/svg" xmlns:xlink="http://www.w3.org/1999/xlink" viewBox="0 0 22 22"><defs><path id="a" d="M1.186 11c0-1.06.526-2.038 1.35-2.644.3-.225.6-.377.826-.53-.077-.3-.153-.677-.226-.978-.225-1.136.225-2.267 1.124-3.02.747-.607 1.646-.908 2.62-.683.302.076.675.152.976.23.15-.306.373-.607.526-.83.598-.835 1.573-1.36 2.62-1.36 1.052 0 2.028.525 2.626 1.36.225.3.373.6.526.83.297-.077.674-.153.97-.23.904-.152 1.875.076 2.626.682.9.754 1.272 1.886 1.124 3.02-.076.302-.15.68-.225.98.3.152.6.377.826.53.823.606 1.35 1.585 1.35 2.644s-.527 2.04-1.35 2.645c-.3.225-.602.377-.827.53.075.3.148.678.224.98.225 1.21-.225 2.266-1.124 3.02-.75.606-1.65.907-2.625.682-.297-.076-.674-.152-.97-.23-.153.306-.378.607-.527.83-.598.835-1.573 1.36-2.625 1.36-1.048 0-2.023-.525-2.62-1.36-.226-.3-.378-.6-.527-.83-.3.077-.674.153-.975.23-.898.152-1.873-.076-2.62-.682-.75-.602-1.124-1.51-1.124-2.49 0-.15 0-.378.072-.53.076-.302.152-.68.187-.83 0 0 .038-.15-.11-.226-.15-.077-.45-.302-.674-.454-.9-.608-1.424-1.587-1.424-2.646"/></defs><clipPath id="b"><use xlink:href="#a" overflow="visible"/></clipPath><g clip-path="url(#b)"><defs><path id="c" d="M.176-.172h22v22h-22z"/></defs><clipPath id="d"><use xlink:href="#c" overflow="visible"/></clipPath><path clip-path="url(#d)" fill="#F8ED50" d="M-3.814-3.817h29.638v29.634H-3.814z"/></g><g><path d="M1.186 11c0-1.06.526-2.038 1.35-2.644.3-.225.6-.377.826-.53-.077-.3-.153-.677-.226-.978-.225-1.136.225-2.267 1.124-3.02.747-.607 1.646-.908 2.62-.683.302.076.675.152.976.23.15-.306.373-.607.526-.83.598-.835 1.573-1.36 2.62-1.36 1.052 0 2.028.525 2.626 1.36.225.3.373.6.526.83.297-.077.674-.153.97-.23.904-.152 1.875.076 2.626.682.9.754 1.272 1.886 1.124 3.02-.076.302-.15.68-.225.98.3.152.604.373.826.53.834.59 1.35 1.585 1.35 2.644 0 1.06-.527 2.04-1.35 2.645-.3.225-.602.377-.827.53.075.3.148.678.224.98.225 1.21-.225 2.266-1.124 3.02-.75.606-1.65.907-2.625.682-.297-.076-.674-.152-.97-.23-.153.306-.378.607-.527.83-.598.835-1.573 1.36-2.625 1.36-1.048 0-2.023-.525-2.62-1.36-.226-.3-.378-.6-.527-.83-.3.077-.674.153-.975.23-.898.152-1.873-.076-2.62-.682-.75-.602-1.124-1.51-1.124-2.49 0-.15 0-.378.072-.53.076-.302.152-.68.187-.83 0 0 .038-.15-.11-.226-.15-.077-.45-.302-.674-.454-.9-.608-1.424-1.587-1.424-2.646z" fill="none" stroke="#404042" stroke-width="2" stroke-linecap="round" stroke-linejoin="round" stroke-miterlimit="10"/></g></svg>